#!OML:ASF F:\VICON\USERDATA\INSTALL\rory3\rory3.ASF
:FULLY-SPECIFIED
:DEGREES
63
root 0.5336900281049388 18.13042208714047 21.699626501315795 -4.324263228628892 0.11320964983371595 3.0584549397684673
lfemur 6.531188977997992 -3.5047936332605607 -28.4874584336372
ltibia 17.55718037980775
lfoot -16.175817053188037 -0.084040277385796
ltoes -0.2975554813078709
rfemur -30.3804315250504 0.8599870329290398 17.642652994091453
rtibia 39.98995717781225
rfoot -4.4802730339479 -12.931053865647964
rtoes 1.487816946548985
lowerback 9.29920744797254 -0.8382461830515714 -3.93473476400907
upperback 0.5816635749860004 -1.5191405470808115 0.9151300222460358
thorax -4.530851968740068 -0.6448496421692315 3.5366764406984106
lowerneck -15.260826520797462 -2.5054576305278538 -2.3111685515173956
upperneck 22.732427233641694 -3.0639515440149436 0.4308289605562301
head 9.727102403900686 -1.5556594108828146 0.1201270582614411
lclavicle -1.0190114528449402e-15 -8.550116336185608e-16
lhumerus -23.558071251580493 0.09574854540067212 77.65101440312716
lradius 12.623544383998762
lwrist 2.7314088510015395
lhand -29.45614294110225 26.83765837244906
lfingers 7.125020000000057
lthumb -2.7919996667607956 56.789964033623086
rclavicle -1.0190114528449404e-15 -8.550116336185609e-16
rhumerus -30.559036768440812 -28.937710334389376 -72.9338344769039
rradius 11.007159317744282
rwrist 10.4399802091353
rhand -17.101381918527746 30.03629276132594
rfingers 7.125020000000057
rthumb 9.137127278961824 -6.886275593100944
64
root 0.5138791885959095 18.044293269564992 22.788703405171763 -3.6370083849515638 0.9887391014411067 3.4662067836239356
lfemur 10.29204035515156 -3.3845106342906517 -28.917047946564566
ltibia 15.690307308384828
lfoot -17.556628675348534 -0.2512496305889247
ltoes -2.2818676232285675
rfemur -32.22555851552978 2.160879102003252 16.860463845854678
rtibia 30.05864712137878
rfoot -5.61487588595833 -14.577741355765788
rtoes -0.9437975988635046
lowerback 9.263758753173391 -1.1807567416746005 -4.602496401288543
upperback 0.569196720133307 -2.050870597783118 0.998450508560501
thorax -4.474702664975265 -0.8900661290797328 4.069408570428582
lowerneck -15.489044042756483 -2.5425183212065283 -2.4544794201241804
upperneck 22.18256475530649 -3.0947827142488125 0.5951620477889674
head 9.593507548087388 -1.5642755190551845 0.19556788132083078
lclavicle -1.0309391429667734e-15 -8.642098329842266e-16
lhumerus -21.706026225132163 -2.1220143309157535 77.94504635100385
lradius 16.024247264015727
lwrist 3.979227847339663
lhand -29.71049295334607 26.433974729612558
lfingers 7.125020000000057
lthumb -3.0376560217460242 56.38528416845105
rclavicle -1.0309391429667736e-15 -8.642098329842268e-16
rhumerus -32.16680088284695 -28.98689930341677 -72.68451921043453
rradius 11.778521747060843
rwrist 10.444180612113843
rhand -17.191697670248338 29.95782427217496
rfingers 7.125020000000057
rthumb 9.05013003750011 -6.809259186353811
65
root 0.4853136850252078 17.948604789271855 23.93707760678011 -2.941949865630566 1.8133916543325994 3.644205286131949
lfemur 13.402156235316319 -3.3563569613122652 -28.938817237501198
ltibia 14.287472607018298
lfoot -18.380918558011768 -0.7912868437391847
ltoes -4.95910194380998
rfemur -32.988042703578145 3.491709089206712 16.418083973903265
rtibia 21.328779925189153
rfoot -6.0105797588391185 -15.867303279787574
rtoes -2.616026006655395
lowerback 9.248615821766181 -1.4451375666097088 -5.028915979699108
upperback 0.5400677551192368 -2.445403347283882 1.1162828653589822
thorax -4.446028561410316 -1.074166300352302 4.470799593619673
lowerneck -15.726517200945867 -2.5934197078243066 -2.5596589048041345
upperneck 21.618514698800105 -3.1507880028159883 0.758318972657626
head 9.458530620789112 -1.5830688385436529 0.2612235899290608
lclavicle -1.0211821069194344e-15 -8.566332897094363e-16
lhumerus -20.374448110341596 -3.7535844326561305 78.30632959712146
lradius 19.59078771259704
lwrist 5.2991773360391985
lhand -30.012025078376396 25.872259012373323
lfingers 7.125020000000057
lthumb -3.328871803998346 55.822622462314264
rclavicle -1.0211821069194348e-15 -8.566332897094364e-16
rhumerus -33.59384179017682 -28.95329527139872 -72.39288353559235
rradius 12.77953603788287
rwrist 10.625634957136537
rhand -17.2917227026281 29.80195056614464
rfingers 7.125020000000057
rthumb 8.95369871163868 -6.676735625274988
66
root 0.4502450128055284 17.84614432244148 24.697985379573254 -2.3565039356547075 2.410854513843824 3.487917734881519
lfemur 15.940240120529783 -3.4241762316301605 -28.34027794827516
ltibia 14.162008991888282
lfoot -18.030439143277054 -1.7551369131035295
ltoes -8.210761335367577
rfemur -33.34129906641004 4.62471828955487 16.52426229017732
rtibia 15.172533995237828
rfoot -6.594404590620805 -16.42239234740131
rtoes -3.1735819067228865
lowerback 9.303081399436024 -1.664149818817385 -5.171827076131764
upperback 0.5132431403068973 -2.744721113423756 1.3141940991788583
thorax -4.462446121045675 -1.2149354310330365 4.779569433802457
lowerneck -15.96440387445481 -2.5958038280068525 -2.599935606325407
upperneck 21.14310827402115 -3.1435551754198583 0.8473028200643538
head 9.348344282133123 -1.5746566416378691 0.29837784210309026
lclavicle -9.999874833493801e-16 -8.402694770193146e-16
lhumerus -19.24334867698748 -4.697223302554537 78.68289393545885
lradius 22.696997696643244
lwrist 6.43288267472094
lhand -30.334779227899915 25.241417097641985
lfingers 7.125020000000057
lthumb -3.6405698770396118 55.18837956658834
rclavicle -9.999874833493807e-16 -8.4026947701931455e-16
rhumerus -35.0012405600063 -29.18171296189532 -71.8988199156089
rradius 13.457274907970408
rwrist 11.174012259586465
rhand -17.389818976061722 29.710307130479418
rfingers 7.125020000000057
rthumb 8.859080457607412 -6.610806947905296
